HIERARCHY
ROOT Hips
{
	OFFSET -0.001795 -0.223333 0.028219
	CHANNELS 6 Xposition Yposition Zposition Zrotation Yrotation Xrotation 
	JOINT LeftUpLeg
	{
		OFFSET 0.069520 -0.091406 -0.006815
		CHANNELS 3 Zrotation Yrotation Xrotation
		JOINT LeftLeg
		{
			OFFSET 0.034277 -0.375199 -0.004496
			CHANNELS 3 Zrotation Yrotation Xrotation
			JOINT LeftFoot
			{
				OFFSET -0.013596 -0.397961 -0.043693
				CHANNELS 3 Zrotation Yrotation Xrotation
				JOINT LeftToe
				{
					OFFSET 0.026358 -0.055791 0.119288
					CHANNELS 3 Zrotation Yrotation Xrotation
					End Site
					{
						OFFSET 0.000000 0.000000 0.000000
					}
				}
			}
		}
	}
	JOINT RightUpLeg
	{
		OFFSET -0.067670 -0.090522 -0.004320
		CHANNELS 3 Zrotation Yrotation Xrotation
		JOINT RightLeg
		{
			OFFSET -0.038290 -0.382569 -0.008850
			CHANNELS 3 Zrotation Yrotation Xrotation
			JOINT RightFoot
			{
				OFFSET 0.015774 -0.398415 -0.042312
				CHANNELS 3 Zrotation Yrotation Xrotation
				JOINT RightToe
				{
					OFFSET -0.025372 -0.048144 0.123348
					CHANNELS 3 Zrotation Yrotation Xrotation
					End Site
					{
						OFFSET 0.000000 0.000000 0.000000
					}
				}
			}
		}
	}
	JOINT Spine
	{
		OFFSET -0.002533 0.108963 -0.026696
		CHANNELS 3 Zrotation Yrotation Xrotation
		JOINT Spine1
		{
			OFFSET 0.005487 0.135180 0.001092
			CHANNELS 3 Zrotation Yrotation Xrotation
			JOINT Spine2
			{
				OFFSET 0.001457 0.052922 0.025425
				CHANNELS 3 Zrotation Yrotation Xrotation
				JOINT Neck
				{
					OFFSET -0.002778 0.213870 -0.042857
					CHANNELS 3 Zrotation Yrotation Xrotation
					JOINT Head
					{
						OFFSET 0.005152 0.064970 0.051349
						CHANNELS 3 Zrotation Yrotation Xrotation
						End Site
						{
							OFFSET 0.000000 0.000000 0.000000
						}
					}
				}
				JOINT LeftShoulder
				{
					OFFSET 0.078845 0.121749 -0.034090
					CHANNELS 3 Zrotation Yrotation Xrotation
					JOINT LeftArm
					{
						OFFSET 0.090977 0.030469 -0.008868
						CHANNELS 3 Zrotation Yrotation Xrotation
						JOINT LeftForeArm
						{
							OFFSET 0.259612 -0.012772 -0.027456
							CHANNELS 3 Zrotation Yrotation Xrotation
							JOINT LeftHand
							{
								OFFSET 0.249234 0.008986 -0.001171
								CHANNELS 3 Zrotation Yrotation Xrotation
								End Site
								{
									OFFSET 0.000000 0.000000 0.000000
								}
							}
						}
					}
				}
				JOINT RightShoulder
				{
					OFFSET -0.081759 0.118833 -0.038615
					CHANNELS 3 Zrotation Yrotation Xrotation
					JOINT RightArm
					{
						OFFSET -0.096012 0.032551 -0.009143
						CHANNELS 3 Zrotation Yrotation Xrotation
						JOINT RightForeArm
						{
							OFFSET -0.253742 -0.013329 -0.021401
							CHANNELS 3 Zrotation Yrotation Xrotation
							JOINT RightHand
							{
								OFFSET -0.255298 0.007772 -0.005559
								CHANNELS 3 Zrotation Yrotation Xrotation
								End Site
								{
									OFFSET 0.000000 0.000000 0.000000
								}
							}
						}
					}
				}
			}
		}
	}
}
MOTION
Frames: 18
Frame Time: 0.050000
0.000000 0.952795 0.000000 -1.038307 -8.187203 8.971941 4.543481 -0.343068 -5.231486 1.249278 -0.120737 -0.694363 6.426079 14.485460 19.345140 0.000000 0.000000 0.000000 -1.659242 0.726177 -7.399349 -1.023243 -0.090917 -3.831249 -4.989060 -17.289544 26.987128 0.000000 0.000000 0.000000 5.636934 0.162535 -3.646064 -2.985963 1.192264 -8.783468 -2.331619 6.507749 6.274065 6.937794 -3.107093 -14.534556 0.000000 0.000000 0.000000 -13.719382 1.130352 -2.150153 -58.307966 -4.915345 -4.738528 -12.571660 -16.468655 2.368464 0.000000 0.000000 0.000000 14.773743 -9.105876 -5.483560 64.008452 -1.896694 -7.273139 9.674926 18.470689 2.094384 0.000000 0.000000 0.000000 
-0.000260 0.952362 0.001796 -1.448741 -8.966506 9.914683 4.762046 -0.332543 -5.121544 1.450824 -0.082893 -2.085905 6.874916 15.013970 19.684835 0.000000 0.000000 0.000000 -1.482464 0.829940 -8.438063 -1.201751 -0.073852 -3.634353 -3.470568 -15.459387 26.839405 0.000000 0.000000 0.000000 6.145924 0.232395 -4.404391 -2.946506 1.165205 -8.467074 -2.618348 7.192404 5.321440 7.541497 -3.290681 -15.396497 0.000000 0.000000 0.000000 -14.622250 2.254132 -2.895340 -56.937935 -4.355896 -4.778071 -13.159118 -15.037152 2.213759 0.000000 0.000000 0.000000 13.397035 -10.236778 -5.778393 65.369208 -3.087122 -7.927069 9.795299 18.175645 2.071827 0.000000 0.000000 0.000000 
-0.000377 0.951969 0.003266 -1.053027 -8.746994 9.544853 4.690185 -0.320165 -4.824215 0.867487 -0.028980 -1.935406 6.708255 14.812002 19.488019 0.000000 0.000000 0.000000 -1.500217 0.795981 -8.105090 -1.933436 -0.026788 -3.515797 -3.698837 -15.737607 26.991744 0.000000 0.000000 0.000000 5.573411 0.206604 -4.150254 -2.581612 1.025794 -8.799509 -2.678018 7.355113 5.075321 7.583425 -3.435567 -14.464881 0.000000 0.000000 0.000000 -14.825348 2.350705 -3.039455 -57.128212 -3.707070 -5.085410 -11.878992 -12.480004 1.680106 0.000000 0.000000 0.000000 13.686600 -9.880390 -5.611812 65.178997 -4.017536 -8.371816 7.880102 18.580270 1.851984 0.000000 0.000000 0.000000 
-0.000529 0.952005 0.004496 -1.268599 -8.994228 10.387295 5.505894 -0.313461 -5.162130 -0.207488 0.107552 -2.670939 6.818865 14.933865 19.710860 0.000000 0.000000 0.000000 -1.443533 0.869808 -8.828760 -1.820630 -0.039356 -3.612720 -3.188317 -15.103632 26.817618 0.000000 0.000000 0.000000 5.435336 0.285331 -5.048430 -2.552820 1.031474 -7.422921 -2.332524 6.896959 3.183954 7.845396 -3.684277 -13.908399 0.000000 0.000000 0.000000 -14.903666 3.600609 -3.603110 -57.775915 -3.603129 -4.992174 -10.547690 -10.134853 1.240442 0.000000 0.000000 0.000000 12.067432 -10.395003 -5.676660 66.056282 -4.652911 -8.657686 8.393349 17.832879 1.798196 0.000000 0.000000 0.000000 
-0.000625 0.952402 0.005394 -1.209249 -8.825821 10.184744 5.438903 -0.313793 -5.103272 -0.167673 0.093671 -2.365815 6.709444 14.808166 19.720994 0.000000 0.000000 0.000000 -1.292493 0.848644 -8.607138 -2.308584 -0.004376 -3.482748 -2.953103 -14.784140 26.970529 0.000000 0.000000 0.000000 5.248756 0.265699 -4.861578 -2.393907 0.984392 -6.691327 -2.320518 6.531394 2.454301 7.829886 -3.635218 -14.108490 0.000000 0.000000 0.000000 -15.127008 3.680462 -3.660096 -57.525767 -3.527435 -4.925853 -9.833986 -8.073081 0.931096 0.000000 0.000000 0.000000 11.759022 -10.246865 -5.584454 65.731582 -4.714033 -8.586213 7.789246 17.354634 1.646848 0.000000 0.000000 0.000000 
-0.000687 0.952777 0.005940 -1.215434 -8.856859 10.524229 5.701458 -0.312383 -5.182666 -0.620528 0.153081 -2.813046 6.677520 14.765182 19.944140 0.000000 0.000000 0.000000 -1.189264 0.883000 -8.934553 -2.776880 0.016397 -3.581626 -2.355636 -14.092329 27.466325 0.000000 0.000000 0.000000 5.052811 0.287893 -5.161902 -2.292873 0.942878 -6.735590 -2.197663 6.652439 2.362921 7.975103 -3.762253 -13.829152 0.000000 0.000000 0.000000 -15.231706 4.176516 -3.936971 -57.232515 -3.690004 -4.803714 -8.953711 -6.411830 0.684253 0.000000 0.000000 0.000000 11.297398 -10.291218 -5.514040 65.815646 -4.622934 -8.514133 7.243007 16.902851 1.527282 0.000000 0.000000 0.000000 
-0.000680 0.952912 0.006084 -1.309447 -8.845499 10.567910 5.810290 -0.314719 -5.326618 -0.632387 0.148115 -2.602006 6.690452 14.783481 19.934933 0.000000 0.000000 0.000000 -0.910535 0.917681 -9.238603 -3.122256 0.048980 -3.380259 -2.497928 -14.436868 28.408849 0.000000 0.000000 0.000000 4.856242 0.280713 -5.121974 -2.040764 0.845646 -6.568506 -2.222282 6.412340 2.284058 8.133088 -3.831221 -14.080340 0.000000 0.000000 0.000000 -15.139326 4.457566 -4.021577 -56.779483 -3.572516 -4.803348 -8.723452 -5.584420 0.581798 0.000000 0.000000 0.000000 11.290025 -10.123605 -5.460239 65.313071 -3.662007 -7.919565 6.442862 16.953876 1.421975 0.000000 0.000000 0.000000 
-0.000654 0.952887 0.006018 -1.274725 -8.702035 10.807566 5.895899 -0.330072 -5.697612 -0.801234 0.161701 -2.481328 6.627582 14.712427 19.910593 0.000000 0.000000 0.000000 -0.845610 0.928287 -9.331177 -3.072691 0.038603 -3.503569 -2.956850 -14.931805 27.931323 0.000000 0.000000 0.000000 4.650576 0.296038 -5.355582 -2.128965 0.889439 -6.129362 -2.281003 6.229146 1.951754 8.052871 -3.884405 -13.433754 0.000000 0.000000 0.000000 -14.986771 4.569703 -4.047745 -55.747788 -3.320956 -4.784007 -8.848454 -5.925161 0.625081 0.000000 0.000000 0.000000 11.189934 -10.007656 -5.398863 64.982534 -3.714484 -7.870875 6.181549 18.737088 1.552340 0.000000 0.000000 0.000000 
-0.000555 0.953133 0.005778 -1.173842 -8.565673 10.873287 5.798054 -0.346969 -5.980830 -0.787262 0.153126 -2.224440 6.551096 14.624416 19.935899 0.000000 0.000000 0.000000 -0.924816 0.938589 -9.445072 -2.835864 0.031914 -3.394027 -3.616632 -15.732119 27.747312 0.000000 0.000000 0.000000 4.375781 0.278936 -5.222894 -2.088176 0.873340 -6.250516 -2.349014 6.423744 1.947495 8.217662 -3.971139 -13.385056 0.000000 0.000000 0.000000 -15.078809 4.068498 -3.876219 -54.627719 -3.594174 -4.542185 -8.735165 -6.379372 0.667818 0.000000 0.000000 0.000000 11.385936 -10.108369 -5.448334 64.210467 -3.897565 -7.830240 6.241285 20.915702 1.784536 0.000000 0.000000 0.000000 
-0.000345 0.953120 0.005401 -1.098250 -8.126646 10.958426 5.735678 -0.372299 -6.411483 -0.711589 0.134691 -1.850135 6.346109 14.391630 19.777111 0.000000 0.000000 0.000000 -1.049701 0.948499 -9.571135 -2.554857 0.021078 -3.319309 -4.252131 -16.482037 27.881604 0.000000 0.000000 0.000000 4.083469 0.288177 -5.404620 -2.018283 0.856414 -5.895381 -2.541229 6.413081 1.898114 8.529747 -4.210286 -13.006319 0.000000 0.000000 0.000000 -14.776490 3.672456 -3.687870 -53.403281 -3.475602 -4.473104 -9.142198 -7.156327 0.774637 0.000000 0.000000 0.000000 11.912742 -10.102357 -5.504731 63.506991 -4.265403 -7.903693 5.916990 24.658799 2.109466 0.000000 0.000000 0.000000 
0.000006 0.952996 0.004779 -0.847726 -7.871386 11.012954 5.541591 -0.394584 -6.674382 -0.801366 0.140852 -1.733565 6.199027 14.219760 19.704820 0.000000 0.000000 0.000000 -1.404781 0.947147 -9.628965 -2.326688 0.005234 -3.372725 -4.600369 -16.866384 27.796493 0.000000 0.000000 0.000000 3.805750 0.285740 -5.433360 -2.052532 0.874320 -5.865031 -2.616976 6.305719 2.111973 8.310695 -4.127017 -12.705021 0.000000 0.000000 0.000000 -14.893333 3.311863 -3.541229 -51.491618 -3.574691 -4.260372 -10.125009 -8.706682 1.020675 0.000000 0.000000 0.000000 11.209783 -10.713596 -5.654404 63.325856 -4.735367 -8.127860 7.768082 30.408294 3.174165 0.000000 0.000000 0.000000 
0.000454 0.952497 0.003727 -0.562715 -6.988998 10.962653 5.315367 -0.431179 -7.118593 -0.739504 0.123152 -1.344607 5.761531 13.705853 19.300734 0.000000 0.000000 0.000000 -1.665824 0.929678 -9.529322 -2.259773 -0.003901 -3.512792 -5.366236 -17.715631 28.162311 0.000000 0.000000 0.000000 3.412153 0.277807 -5.428283 -1.995548 0.867631 -5.523997 -2.705921 5.848783 2.406678 8.457721 -4.268603 -12.461931 0.000000 0.000000 0.000000 -14.241725 2.840207 -3.211916 -49.888154 -3.570368 -4.137901 -11.695995 -10.943109 1.436364 0.000000 0.000000 0.000000 10.369436 -11.076488 -5.658988 62.941599 -5.473831 -8.464075 10.638480 39.315893 5.306293 0.000000 0.000000 0.000000 
0.001023 0.952363 0.001832 -0.650797 -6.581623 11.050581 5.349964 -0.450658 -7.543915 -0.556481 0.096163 -1.092883 5.598661 13.517232 19.095400 0.000000 0.000000 0.000000 -1.664310 0.942113 -9.669750 -2.145589 0.001313 -3.315678 -5.250172 -17.458121 27.661487 0.000000 0.000000 0.000000 3.389871 0.265599 -5.315961 -1.962543 0.865872 -4.834233 -2.859086 5.817830 2.346479 8.553162 -4.375460 -12.102017 0.000000 0.000000 0.000000 -13.064638 2.581671 -2.939460 -48.684804 -2.823506 -4.318339 -14.446964 -14.508049 2.249788 0.000000 0.000000 0.000000 9.809933 -12.233220 -6.052874 61.903155 -5.948000 -8.504918 17.181260 52.597479 10.824519 0.000000 0.000000 0.000000 
0.001627 0.952256 -0.001132 -0.535044 -7.036048 11.006062 5.319935 -0.452273 -7.734650 -0.860988 0.125593 -0.904681 5.827246 13.783306 19.175355 0.000000 0.000000 0.000000 -2.153676 0.982321 -10.199028 -1.664848 0.018282 -2.397783 -4.683654 -16.667056 26.287565 0.000000 0.000000 0.000000 2.782440 0.235915 -4.917803 -1.687707 0.749307 -4.649395 -3.050315 6.943350 2.659683 9.044038 -4.654770 -12.012034 0.000000 0.000000 0.000000 -12.244606 2.421116 -2.864469 -46.802279 -1.123631 -4.781145 -18.213879 -19.467849 3.633244 0.000000 0.000000 0.000000 9.684009 -11.278885 -5.521352 60.002650 -5.089350 -7.745414 29.861274 66.951183 23.671594 0.000000 0.000000 0.000000 
0.002240 0.952143 -0.005051 -0.386435 -7.134606 11.067738 5.285039 -0.489839 -8.760325 -1.103165 0.127784 0.306729 5.928117 13.908577 19.099403 0.000000 0.000000 0.000000 -2.447962 1.056033 -11.090835 -1.570496 0.078576 -1.126345 -4.337662 -16.112092 25.231670 0.000000 0.000000 0.000000 2.719379 0.203993 -4.504465 -1.963022 0.866752 -4.348675 -3.595614 8.230909 2.567420 9.334381 -4.838477 -11.559057 0.000000 0.000000 0.000000 -9.909347 1.811062 -2.363641 -45.417453 0.777464 -5.318543 -24.783334 -24.175012 5.817723 0.000000 0.000000 0.000000 8.911990 -10.134610 -4.781631 56.399716 -2.068195 -5.779341 70.509327 75.337498 62.797648 0.000000 0.000000 0.000000 
0.002590 0.952251 -0.009474 -0.274667 -7.856666 10.566263 5.220429 -0.475515 -8.711492 -1.356496 0.152424 0.864298 6.279720 14.318475 19.264738 0.000000 0.000000 0.000000 -2.712428 1.078405 -11.408292 -1.802317 0.173757 0.251600 -2.823354 -13.870998 23.438913 0.000000 0.000000 0.000000 2.683102 0.139069 -3.537944 -2.535989 1.097529 -4.520119 -3.947083 9.901337 3.406385 10.543847 -5.667927 -11.212693 0.000000 0.000000 0.000000 -10.079055 0.290392 -1.901559 -42.021888 1.782171 -5.196415 -32.852771 -26.342441 8.118366 0.000000 0.000000 0.000000 9.102187 -7.448502 -3.474316 50.393613 1.540604 -3.889455 116.574193 74.541808 109.661830 0.000000 0.000000 0.000000 
0.002616 0.951357 -0.013790 -0.356222 -7.819365 10.117845 5.289275 -0.467646 -8.719606 -1.250727 0.131521 1.285448 6.321284 14.366756 18.896581 0.000000 0.000000 0.000000 -2.413922 1.096402 -11.526344 -2.229880 0.281091 1.328669 -2.418899 -12.998284 21.907088 0.000000 0.000000 0.000000 2.494525 0.078854 -2.628101 -3.064339 1.338627 -3.821064 -4.174307 10.870804 3.555335 11.810806 -6.159670 -12.429749 0.000000 0.000000 0.000000 -8.775906 -1.970182 -0.862110 -39.141453 2.739625 -5.052045 -45.440556 -26.077918 10.800730 0.000000 0.000000 0.000000 8.051903 -4.466138 -1.965009 45.156934 6.201609 -1.977160 130.687495 69.308600 122.191290 0.000000 0.000000 0.000000 
0.002374 0.950869 -0.017177 -0.605415 -7.504999 9.853942 5.729346 -0.439022 -8.703597 -1.393101 0.148348 1.371262 6.194771 14.208950 18.587660 0.000000 0.000000 0.000000 -2.005918 1.069000 -11.114957 -2.419068 0.307625 1.420390 -2.140937 -12.230347 20.469712 0.000000 0.000000 0.000000 2.782567 0.014550 -1.771870 -3.735069 1.634076 -3.681809 -4.028163 11.670064 4.173902 12.448334 -6.352560 -13.187290 0.000000 0.000000 0.000000 -8.299722 -4.364823 0.091826 -36.960141 2.739192 -4.718585 -55.489944 -25.019032 12.461195 0.000000 0.000000 0.000000 7.154392 -1.841360 -0.689347 41.285553 9.208363 -1.049708 128.852181 65.150037 116.457357 0.000000 0.000000 0.000000 
